<svg id="Layer_1" data-name="Layer 1" xmlns="http://www.w3.org/2000/svg" viewBox="0 0 36 36"><defs><style>.cls-1{fill:#fd5000;}</style></defs><path class="cls-1" d="M36,6.19V29.81a1.52,1.52,0,0,0-.06.2,6.4,6.4,0,0,1-6.51,5.55c-7.62,0-15.23,0-22.85,0a7.33,7.33,0,0,1-1.15-.07A6.36,6.36,0,0,1,0,29.07V6.93A6.35,6.35,0,0,1,6.41.45Q18,.42,29.6.45a6.33,6.33,0,0,1,6.22,4.89C35.89,5.62,35.94,5.9,36,6.19Zm-16.76,19a3.54,3.54,0,0,0-.09-.38q-2.68-7.5-5.35-15a.35.35,0,0,0-.39-.29H9.86c-.25,0-.3.09-.34.32a10.43,10.43,0,0,1-.33,1.57c-.31,1-.66,1.92-1,2.88L4.56,24.68c-.18.5-.17.51.35.52.77,0,1.54,0,2.31,0a.51.51,0,0,0,.6-.43c.34-1.11.71-2.2,1.06-3.31h5.58l.12.33,1.06,3.09c.06.17.12.32.35.32h3.06A1.37,1.37,0,0,0,19.24,25.14Zm4.14-5,.3,0c1.75,0,3.49,0,5.24,0,.52,0,1,0,1.57-.08a.41.41,0,0,0,.29-.29,17.9,17.9,0,0,0,.08-1.93,4.77,4.77,0,0,0-3.12-4.43,6,6,0,0,0-2.53-.29,5.07,5.07,0,0,0-4,2.24,7.12,7.12,0,0,0-.82,6.45,5,5,0,0,0,3.73,3.47,9.25,9.25,0,0,0,5-.17c.85-.25.7-.19.71-1,0-.52,0-1,0-1.55,0-.12,0-.24,0-.39l-.33.1a8.71,8.71,0,0,1-3.4.39A2.77,2.77,0,0,1,23.38,20.1Z"/><path class="cls-1" d="M11.64,12.22l1.93,6.24H9.76Z"/><path class="cls-1" d="M23.37,17.87a2.24,2.24,0,0,1,2.93-2.11,1.93,1.93,0,0,1,1.4,1.63c0,.38,0,.46-.4.47H23.37Z"/></svg>