<?xml version="1.0" encoding="utf-8"?>
<!-- Generator: Adobe Illustrator 24.3.0, SVG Export Plug-In . SVG Version: 6.00 Build 0)  -->
<svg version="1.1" id="Layer_1" xmlns="http://www.w3.org/2000/svg" xmlns:xlink="http://www.w3.org/1999/xlink" x="0px" y="0px"
	 viewBox="0 0 100 100" style="enable-background:new 0 0 100 100;" xml:space="preserve">
<style type="text/css">
	.st0{fill:#FB8500;}
</style>
<g>
	<path class="st0" d="M63.5,78.2c-9.6-8.1-20.6-13.2-32.8-16c0-8.2,0-16.3,0-24.5c12.2-2.7,23.2-7.8,32.8-16
		C63.5,40.6,63.5,59.4,63.5,78.2z"/>
	<path class="st0" d="M77.2,50.1c0,10.4,0,20.8,0,31.1c0,3.4-2.5,6-5.8,5.9c-3,0-5.4-2.5-5.6-5.4c0-0.2,0-0.4,0-0.6
		c0-20.7,0-41.5,0-62.2c0-3,1.7-5.3,4.5-5.9c3.5-0.8,6.9,1.8,7,5.4c0.1,2.3,0,4.5,0,6.8C77.2,33.5,77.2,41.8,77.2,50.1z"/>
	<path class="st0" d="M16.5,37.9c4,0,8,0,12,0c0,8.1,0,16.1,0,24.2c-4,0-8,0-12,0C16.5,54,16.5,46,16.5,37.9z"/>
	<path class="st0" d="M14.2,62.2c-1.4-0.1-2.8,0-4.1-0.2c-3-0.5-5.1-3.1-5.2-6.1C5,52,5,48,5,44.1c0-3.4,2.8-6.1,6.2-6.2
		c1,0,2,0,3,0C14.2,45.9,14.2,54,14.2,62.2z"/>
	<path class="st0" d="M16.5,64.3c4.2,0,8.2,0,12.4,0c-0.6,2.2-1.1,4.4-1.6,6.6c-0.5,2.1-1.1,4.3-1.6,6.4c-0.4,1.4-1,2-2.5,2
		c-1.5,0-2.9,0-4.4,0c-1.3,0-2.2-0.9-2.2-2.1C16.4,72.9,16.5,68.7,16.5,64.3z"/>
	<path class="st0" d="M82.4,36.6c-1.2,0-1.9-0.6-2.2-1.5c-0.3-0.9,0-1.9,0.9-2.4c2.2-1.1,4.5-2.2,6.8-3.3c1.1-0.5,2.2,0.1,2.7,1.1
		c0.5,1.1,0.1,2.2-1,2.8c-2.1,1.1-4.3,2.1-6.5,3.1C82.8,36.6,82.5,36.6,82.4,36.6z"/>
	<path class="st0" d="M90.8,68.3c0,1.7-1.4,2.8-2.8,2.2c-2.3-1-4.6-2.1-6.9-3.3c-1-0.5-1.3-1.7-0.8-2.7c0.5-1,1.6-1.5,2.6-1.1
		c2.3,1,4.6,2.1,6.8,3.3C90.5,67.1,90.7,67.8,90.8,68.3z"/>
	<path class="st0" d="M89.3,52.1c-1.1,0-2.3,0-3.4,0c-1.4,0-2.3-0.9-2.3-2.2c0-1.2,0.9-2.1,2.3-2.1c2.3,0,4.6,0,6.9,0
		c1.3,0,2.3,0.9,2.3,2.1c0,1.2-0.9,2.1-2.3,2.2C91.5,52.2,90.4,52.1,89.3,52.1z"/>
</g>
</svg>
