<svg id="Layer_1" data-name="Layer 1" xmlns="http://www.w3.org/2000/svg" viewBox="0 0 36 36"><defs><style>.cls-1{fill:#fd5000;}</style></defs><path class="cls-1" d="M18,36H8A7.89,7.89,0,0,1,.15,29.55,7.71,7.71,0,0,1,0,28Q0,18,0,8.06a7.91,7.91,0,0,1,7-8A9.39,9.39,0,0,1,8.09,0H27.91a7.88,7.88,0,0,1,7.94,6.45A8.2,8.2,0,0,1,36,8.1Q36,18,36,27.92a7.89,7.89,0,0,1-6.46,7.93,9.9,9.9,0,0,1-1.72.14Zm-2-10.7a1.3,1.3,0,0,0,1.22-1l3.06-9.18c.3-.9.62-1.8.91-2.71a1.26,1.26,0,0,0-1-1.68,1.28,1.28,0,0,0-1.41,1L14.85,23.48a2.54,2.54,0,0,0-.1.37A1.27,1.27,0,0,0,16,25.29ZM9.74,18l.31-.32,2.8-2.81a1.25,1.25,0,1,0-1.78-1.76c-1.33,1.32-2.67,2.65-4,4a1.21,1.21,0,0,0,0,1.79c1.32,1.34,2.66,2.67,4,4a1.25,1.25,0,1,0,1.78-1.76c-.92-.95-1.87-1.87-2.8-2.81Zm16.53,0c-.12.13-.2.23-.3.32-.93.93-1.87,1.86-2.8,2.8a1.26,1.26,0,0,0,0,1.8,1.24,1.24,0,0,0,1.79,0q2-2,4-4a1.23,1.23,0,0,0,0-1.79c-.27-.29-.55-.56-.83-.84L25,13.13a1.24,1.24,0,0,0-2.11.48,1.23,1.23,0,0,0,.37,1.32Z"/></svg>