<svg id="Layer_1" data-name="Layer 1" xmlns="http://www.w3.org/2000/svg" viewBox="0 0 36 36"><defs><style>.cls-1{fill:#fd5000;}</style></defs><path class="cls-1" d="M21.88,13.21a2.83,2.83,0,0,0,2.78-2.58,2.79,2.79,0,0,0-2.4-3.07c-1.07-.1-2.16,0-3.25,0l0,0v5.67h2.9Z"/><path class="cls-1" d="M11.34,17.72a2.78,2.78,0,0,0,2.42,3.08c1.07.1,2.15,0,3.22,0l.06,0V15.15H14.12A2.83,2.83,0,0,0,11.34,17.72Z"/><path class="cls-1" d="M14.11,13.21h2.64l.27,0V7.55c-1.13,0-2.23-.08-3.31,0a2.78,2.78,0,0,0-2.37,3.08A2.83,2.83,0,0,0,14.11,13.21Z"/><path class="cls-1" d="M14,22.79a2.8,2.8,0,0,0-2.64,2.85,2.85,2.85,0,0,0,2.56,2.83A2.77,2.77,0,0,0,17,26.06a32.53,32.53,0,0,0,0-3.28C16,22.78,15,22.74,14,22.79Z"/><path class="cls-1" d="M21.83,15.15A2.83,2.83,0,0,0,19,18a2.86,2.86,0,1,0,5.71,0A2.83,2.83,0,0,0,21.83,15.15Z"/><path class="cls-1" d="M35.82,5A6.34,6.34,0,0,0,29.6,0Q18,0,6.41,0A6.42,6.42,0,0,0,0,6.65v22.7a6.46,6.46,0,0,0,5.43,6.56A6.74,6.74,0,0,0,6.62,36c7.59,0,15.18,0,22.77,0a6.46,6.46,0,0,0,6.55-5.69,1.17,1.17,0,0,1,.06-.2V5.89C35.94,5.6,35.89,5.31,35.82,5ZM26.58,18a4.75,4.75,0,0,1-4.14,4.73,4.83,4.83,0,0,1-3.49-.9v3.72a4.77,4.77,0,1,1-7.66-3.73,4.83,4.83,0,0,1,0-7.64c-.16-.15-.33-.29-.48-.45A4.76,4.76,0,0,1,14.14,5.6h7.63A4.77,4.77,0,0,1,24.86,14l-.17.14A4.75,4.75,0,0,1,26.58,18Z"/></svg>