<?xml version="1.0" encoding="utf-8"?>
<!-- Generator: Adobe Illustrator 24.3.0, SVG Export Plug-In . SVG Version: 6.00 Build 0)  -->
<svg version="1.1" id="Layer_1" xmlns="http://www.w3.org/2000/svg" xmlns:xlink="http://www.w3.org/1999/xlink" x="0px" y="0px"
	 viewBox="0 0 120 120" style="enable-background:new 0 0 120 120;" xml:space="preserve">
<style type="text/css">
	.st0{fill:#F5F5F5;}
</style>
<g>
	<path class="st0" d="M114.9,71.8c-0.5,1-1.1,2.1-1.9,3c-1,1.1-2.3,1.4-3.7,1.5c-1.6,0-3.2,0-4.8,0c-3.2-0.1-5.5-2.3-5.6-5.6
		c0-1.5,0-3.1,0-4.6c0-3.5,2.2-5.7,5.6-5.8c0.1,0,0.2,0,0.4,0c-0.2-18-13.6-37.3-34.8-41.9c0,0.5,0,1,0,1.4
		c-0.1,3.2-2.4,5.5-5.6,5.6c-3,0-5.8,0-8.8,0c-3.4,0-5.7-2.3-5.8-5.8c0-0.4,0-0.8,0-1.2C31.7,22,15.8,39,15,60.2
		c0.2,0,0.4,0.1,0.7,0.1c3.1,0.2,5.3,2.3,5.4,5.5c0.1,1.8,0.1,3.4,0,5.2c-0.1,3.2-2.4,5.4-5.6,5.5c-1.6,0-3.2,0-4.8,0
		C7.3,76.3,5.1,74,5,70.7c0-1.3,0-2.5,0-3.8c0-4.3,1.9-6.3,6-6.5c1.8-20.2,11.6-34.5,29.9-43.3c-0.3,0-0.5-0.1-0.8-0.1
		c-5.7,0-11.5,0-17.2,0c-0.7,0-1,0.2-1.3,0.8c-1.2,2.3-3.7,3.3-6.1,2.6c-2.4-0.7-4.1-2.9-4.1-5.3c0-2.5,1.6-4.7,4.1-5.3
		c2.4-0.7,4.9,0.4,6.3,2.6c0.3,0.4,0.5,0.8,1.2,0.8c8.8,0,17.7,0,26.5,0c0.2,0,0.4,0,0.8-0.1c-0.4-3.7,0.3-6.9,4.4-8.1
		c3.7,0,7.5,0,11.2,0c4.2,1.2,4.8,4.4,4.4,8.1c0.3,0,0.5,0.1,0.8,0.1c8.8,0,17.7,0,26.5,0c0.5,0,0.9-0.2,1.1-0.8
		c1.1-2.1,3-3.1,5.3-2.9c2.6,0.2,4.7,2.3,4.9,4.8c0.2,2.7-1.3,5-3.8,5.8c-2.5,0.8-5.2-0.3-6.5-2.7c-0.3-0.5-0.7-0.8-1.2-0.8
		c-5.8,0-11.5,0-17.3,0c-0.2,0-0.4,0.1-0.7,0.1c18.2,9,28.1,23.3,29.8,43.4c0.5,0,1,0,1.5,0.1c2.5,0.4,3.8,2.1,4.6,4.4
		C114.9,67.1,114.9,69.5,114.9,71.8z"/>
	<path class="st0" d="M60,90.6c-4.7,0-9.4,0-14.2,0c-1.9,0-2.4-0.5-2.5-2.4c-0.9-8.8-3.5-17.1-8-24.8c-1.2-2.1-1.2-2.2,0.3-4.2
		c6.3-8,12.5-16,18.8-24c0.2-0.3,0.4-0.7,0.7-0.8c0.7-0.2,1.4-0.7,1.9-0.4c0.5,0.2,0.9,1,1.2,1.5c0.1,0.3,0,0.7,0,1.1
		c0,7.7,0,15.4,0,23.1c0,1.4-0.4,2.3-1.8,3c-3.3,1.6-4.8,5.3-4,8.8c0.9,3.5,4,5.9,7.6,5.9c3.5,0,6.7-2.5,7.5-6
		c0.8-3.4-0.9-7-4.1-8.6c-1.2-0.7-1.6-1.4-1.6-2.7c0-7.8,0-15.5,0-23.3c0-0.1,0-0.3,0-0.4c0-1,0.2-1.8,1.3-2.1
		c1-0.3,1.6,0.1,2.2,0.9c2.3,2.9,4.5,5.8,6.8,8.7c4.2,5.4,8.5,10.8,12.6,16.1c1.1,1.4,1.1,1.9,0.2,3.4c-4.6,7.9-7.4,16.4-8.2,25.5
		c-0.1,1.5-0.8,2.1-2.3,2.1C69.7,90.6,64.8,90.6,60,90.6z"/>
	<path class="st0" d="M60,94.1c5.4,0,10.8,0,16.1,0c4.7,0,7.8,3.1,7.8,7.8c0,1.9,0,3.8,0,5.7c-0.1,4.1-3.2,7.2-7.2,7.4
		c-11.2,0-22.3,0-33.5,0c-4.1,0-7.2-3.2-7.2-7.4c0-2,0-4,0-6c0-4.3,3.2-7.5,7.5-7.5C49,94.1,54.5,94.1,60,94.1z"/>
</g>
</svg>
