<?xml version="1.0" encoding="utf-8"?>
<!-- Generator: Adobe Illustrator 24.3.0, SVG Export Plug-In . SVG Version: 6.00 Build 0)  -->
<svg version="1.1" id="Layer_1" xmlns="http://www.w3.org/2000/svg" xmlns:xlink="http://www.w3.org/1999/xlink" x="0px" y="0px"
	 viewBox="0 0 110 110" style="enable-background:new 0 0 110 110;" xml:space="preserve">
<style type="text/css">
	.st0{fill:#F5F5F5;}
</style>
<g>
	<path class="st0" d="M105,20.4c-0.8,1.7-2.1,2.2-3.9,2.2c-3.4-0.1-6.8,0-10.3,0c-2.2,0-3.4-1.1-3.4-3.3c0-0.8,0-1.6,0-2.5
		c-4,0-7.9,0-11.9,0c1.6,1.3,3.3,2.5,4.8,3.8c7.4,6.7,11.6,15.1,12.6,25.1c0.1,0.7,0.3,1.1,1,1.4c3.3,1.5,5.5,5.2,5,8.7
		c-0.5,4-3.3,7.1-7,7.8c-3.9,0.7-7.6-1-9.4-4.4c-2.5-4.5-0.7-9.9,3.9-12.1c0.5-0.3,0.7-0.6,0.6-1.1c-0.6-5.6-2.5-10.6-5.7-15.3
		c-4.2-6.2-11.3-11.2-18.5-12.9c-1.7,3-4.3,4.8-7.9,4.8c-3.5,0-6.1-1.7-7.9-4.8c-3.4,0.9-6.6,2.3-9.6,4.2
		c-7,4.7-11.6,11.1-13.7,19.2c-0.4,1.6-0.6,3.2-0.9,4.8c-0.1,0.6,0.1,0.8,0.6,1.1c3.2,1.6,5,4.2,5,7.8c0.1,3.5-1.6,6.2-4.7,7.9
		c-4.4,2.4-9.7,0.6-12.1-4.1c-2.1-4.2-0.1-9.6,4.2-11.6c0.7-0.3,1-0.7,1.1-1.5c1-9.9,5.2-18.3,12.5-25c1.5-1.3,3.1-2.5,4.7-3.8
		c-3.9,0-7.8,0-11.8,0c0,0.8,0,1.7,0,2.6c0,2.1-1.2,3.2-3.3,3.3c-3.7,0-7.4,0-11,0c-2.1,0-3.2-1.2-3.3-3.3c0-3.7,0-7.4,0-11
		C5,6.2,6.2,5,8.3,5c3.7,0,7.4,0,11,0c2.1,0,3.2,1.2,3.3,3.3c0,0.8,0,1.6,0,2.5c0.4,0,0.7,0,1,0c7.4,0,14.8,0,22.3,0
		c0.7,0,1-0.2,1.3-0.8c1.6-3.2,4.3-5,7.9-5c3.6,0,6.3,1.8,8,5c0.2,0.4,0.3,0.8,1,0.8c7.6,0,15.3,0,22.9,0c0.2,0,0.3,0,0.6,0
		c0-0.9,0-1.7,0-2.6c0-2.1,1.2-3.2,3.3-3.3c3.4,0,6.9,0.1,10.3,0c1.8,0,3.2,0.5,3.9,2.2C105,11.6,105,16,105,20.4z M16.6,16.7
		c0-1.9,0-3.8,0-5.8c-1.9,0-3.8,0-5.7,0c0,2,0,3.9,0,5.8C12.9,16.7,14.7,16.7,16.6,16.7z M99.1,16.7c0-1.9,0-3.8,0-5.8
		c-1.9,0-3.8,0-5.7,0c0,2,0,3.9,0,5.8C95.3,16.7,97.1,16.7,99.1,16.7z M55,16.7c1.6,0,2.9-1.3,2.9-2.9c0-1.6-1.3-2.9-2.9-2.9
		c-1.6,0-2.9,1.3-2.9,2.9C52.1,15.4,53.4,16.7,55,16.7z M22.8,55c0-1.6-1.3-2.9-2.9-2.9c-1.6,0-2.9,1.3-2.9,2.9
		c0,1.6,1.3,2.9,2.9,2.9C21.4,57.9,22.8,56.6,22.8,55z M90.1,52.1c-1.6,0-2.9,1.4-2.9,3c0,1.6,1.4,2.9,3,2.9c1.6,0,2.9-1.4,2.9-3
		C93.1,53.4,91.7,52.1,90.1,52.1z"/>
	<path class="st0" d="M36.6,105c-2.2-1.3-2.5-2.3-1.9-5.7c0.6-3.2,2.1-6,4.6-8.2c0.6-0.5,0.7-1,0.6-1.7c-1.2-7.7-4.5-14.4-9.9-20.1
		c-1.8-1.9-1.8-2.9-0.4-5c7.5-11.3,15-22.6,22.6-33.9c1.7-2.5,4-2.5,5.6,0c7.5,11.3,15,22.5,22.5,33.8c1.5,2.2,1.4,3.2-0.4,5.2
		c-5.3,5.7-8.6,12.3-9.8,20c-0.1,0.7,0,1.2,0.6,1.7c2.9,2.6,4.4,5.9,4.8,9.7c0.2,1.9-0.3,3.3-2.1,4.1C61.1,105,48.9,105,36.6,105z
		 M58.1,41.5c-0.1,0-0.1,0-0.2,0.1c0,5.3,0,10.5,0,15.8c0,0.8,0.2,1.1,0.9,1.4c4.8,2.2,6.5,8.5,3.4,12.9c-2.2,3-6,4.5-9.4,3.5
		c-3.8-1.1-6.2-4-6.6-8c-0.3-3.4,1.8-6.9,5.2-8.5c0.5-0.2,0.7-0.5,0.7-1.1c0-5.2,0-10.4,0-15.5c0-0.2,0-0.4-0.1-0.7
		c-5.6,8.4-11.1,16.7-16.7,25c5.4,6.1,8.8,13.2,10.3,21.1c6.3-0.4,12.6-0.4,18.9,0c1.5-7.9,4.9-15,10.2-21.1
		C69.2,58.1,63.6,49.8,58.1,41.5z M41,99.1c9.3,0,18.7,0,28.1,0c-1.5-3.4-3.9-5.7-7.6-5.9c-4.3-0.2-8.7-0.2-13.1,0
		C45,93.3,41.8,96.1,41,99.1z M57.9,66.8c0-1.6-1.3-2.9-2.9-2.9c-1.6,0-2.9,1.3-2.9,2.9c0,1.6,1.3,2.9,2.9,2.9
		C56.6,69.7,57.9,68.3,57.9,66.8z"/>
</g>
</svg>
