<svg id="Layer_1" data-name="Layer 1" xmlns="http://www.w3.org/2000/svg" viewBox="0 0 36 36"><defs><style>.cls-1{fill:#fd5000;}</style></defs><path class="cls-1" d="M18.06.45c3.79,0,7.59,0,11.38,0a6.34,6.34,0,0,1,6.44,5.21A7.59,7.59,0,0,1,36,7.09Q36,18,36,28.94a6.31,6.31,0,0,1-5.09,6.47,8.05,8.05,0,0,1-1.55.14q-11.35,0-22.7,0A6.35,6.35,0,0,1,.13,30.37,6.49,6.49,0,0,1,0,29.05Q0,18,0,7A6.28,6.28,0,0,1,5.13.59,8.39,8.39,0,0,1,6.79.46Zm4.15,24.8a4.22,4.22,0,0,0-.09-.48Q19.48,17.3,16.81,9.84a.69.69,0,0,0-.51-.38c-1.11,0-2.22,0-3.33,0-.36,0-.44.15-.48.48a7.21,7.21,0,0,1-.31,1.45Q9.91,17.95,7.61,24.54c-.07.2-.12.41-.21.71,1,0,1.87,0,2.74,0a.6.6,0,0,0,.69-.52c.28-.93.61-1.85.88-2.79a.53.53,0,0,1,.61-.44c1.55,0,3.11,0,4.66,0a.57.57,0,0,1,.64.48c.31,1,.63,1.89,1,2.82.07.18.29.41.44.42C20.06,25.27,21.09,25.25,22.21,25.25Zm4.91-12c-.92,0-1.77,0-2.61,0-.56,0-.76.11-.74.72,0,2.09,0,4.18,0,6.26,0,1.5,0,3,0,4.49,0,.17.18.5.28.5,1,0,2,0,3.05,0Zm.23-3.15a1.75,1.75,0,0,0-1.78-1.89,1.84,1.84,0,0,0-1.94,1.82,1.86,1.86,0,1,0,3.72.07Z"/><path class="cls-1" d="M14.61,12.16l1.92,6.27H12.75Z"/></svg>