<?xml version="1.0" encoding="utf-8"?>
<!-- Generator: Adobe Illustrator 24.3.0, SVG Export Plug-In . SVG Version: 6.00 Build 0)  -->
<svg version="1.1" id="Layer_1" xmlns="http://www.w3.org/2000/svg" xmlns:xlink="http://www.w3.org/1999/xlink" x="0px" y="0px"
	 viewBox="0 0 100 100" style="enable-background:new 0 0 100 100;" xml:space="preserve">
<style type="text/css">
	.st0{fill:#FB8500;}
</style>
<g>
	<path class="st0" d="M61.8,77.4c-7.9,0-15.8,0-23.7,0c-0.2-3-1.8-5-4-6.8c-8.2-6.9-11.3-15.8-8.6-26.1c2.7-10.2,9.6-16.5,20-18.4
		c14.2-2.7,27.6,7.1,29.5,21.4c1.2,9.4-2,17.3-9.4,23.3C63.1,72.9,62.2,74.3,61.8,77.4z"/>
	<path class="st0" d="M38.2,82.1c7.9,0,15.7,0,23.7,0c0,4.3-1.6,7.7-5.1,10.1c-4,2.7-8.3,2.9-12.5,0.6
		C40.2,90.5,38.2,86.8,38.2,82.1z"/>
	<path class="st0" d="M79.6,17.9c1.4,0.1,2.2,0.5,2.7,1.6c0.5,1,0.4,2.1-0.3,2.9c-1,1.2-2.1,2.3-3.3,3.3c-1.1,0.9-2.6,0.8-3.6-0.2
		c-1-1-1.1-2.6-0.2-3.6c1-1.2,2.2-2.3,3.3-3.3C78.6,18.2,79.3,18.1,79.6,17.9z"/>
	<path class="st0" d="M20.5,17.9c0.4,0.2,1.1,0.5,1.7,1c0.9,0.8,1.8,1.7,2.7,2.6c1.2,1.3,1.2,2.9,0.1,4c-1.1,1.1-2.8,1.1-4-0.1
		c-0.9-0.9-1.9-1.8-2.8-2.8c-0.8-0.9-1-1.9-0.5-3C18.1,18.5,19,18,20.5,17.9z"/>
	<path class="st0" d="M9.8,47.9c0.7,0,1.4,0,2.1,0c1.4,0.1,2.5,1.1,2.6,2.5c0.1,1.4-0.8,2.7-2.3,2.9c-1.7,0.1-3.4,0.1-5.1,0
		c-1.4-0.1-2.3-1.4-2.2-2.8c0.1-1.4,1.2-2.5,2.6-2.6C8.3,47.8,9.1,47.9,9.8,47.9z"/>
	<path class="st0" d="M90.2,53.4c-0.7,0-1.3,0-2,0c-1.7-0.1-2.8-1.2-2.8-2.8c0-1.6,1.2-2.7,2.9-2.7c1.3,0,2.6,0,3.9,0
		c1.5,0,2.7,1.2,2.7,2.6c0.1,1.4-1,2.6-2.5,2.8C91.8,53.4,91,53.3,90.2,53.4C90.2,53.3,90.2,53.4,90.2,53.4z"/>
	<path class="st0" d="M52.7,10.5c0,0.7,0,1.5,0,2.2c-0.1,1.5-1.3,2.5-2.8,2.5c-1.4,0-2.6-1.1-2.7-2.5c-0.1-1.5-0.1-3.1,0-4.6
		c0.1-1.4,1.3-2.4,2.7-2.4c1.4,0,2.6,1,2.7,2.4C52.8,8.9,52.7,9.7,52.7,10.5C52.7,10.5,52.7,10.5,52.7,10.5z"/>
</g>
</svg>
