<?xml version="1.0" encoding="utf-8"?>
<!-- Generator: Adobe Illustrator 24.3.0, SVG Export Plug-In . SVG Version: 6.00 Build 0)  -->
<svg version="1.1" id="Layer_1" xmlns="http://www.w3.org/2000/svg" xmlns:xlink="http://www.w3.org/1999/xlink" x="0px" y="0px"
	 viewBox="0 0 100 100" style="enable-background:new 0 0 100 100;" xml:space="preserve">
<style type="text/css">
	.st0{fill:#1E1E1E;}
</style>
<path class="st0" d="M68.9,21.8c-4.2,0-8.2,0.9-11.7,2.6c-3.6-1.6-7.5-2.6-11.7-2.6c-5.5,0-10.7,1.6-15.1,4.4H7.8
	c-2.7,0-4.9,2.2-4.9,4.9c0,2.7,2.2,4.9,4.9,4.9H21c-1.6,2.7-2.7,5.8-3.3,9H7.8c-1.4,0-2.6,0.5-3.5,1.4c-0.9,0.9-1.4,2.1-1.4,3.5
	c0,2.7,2.2,4.9,4.9,4.9h9.9c0.6,3.2,1.7,6.2,3.2,9H7.8c-2.7,0-4.9,2.2-4.9,4.9c0,2.7,2.2,4.9,4.9,4.9h22.3c4.4,2.9,9.7,4.6,15.4,4.6
	c4.2,0,8.2-0.9,11.7-2.6c3.6,1.6,7.5,2.6,11.7,2.6c15.6,0,28.2-12.7,28.2-28.2C97.1,34.4,84.5,21.8,68.9,21.8z M47.2,68
	c-0.6,0.1-1.2,0.1-1.7,0.1c-8.3,0-15.3-5.6-17.4-13.3c-0.4-1.5-0.6-3.1-0.6-4.8c0-1.7,0.2-3.4,0.7-5c2.2-7.5,9.1-13.1,17.4-13.1
	c0.6,0,1.2,0,1.7,0.1c-4.1,4.9-6.5,11.2-6.5,18S43.2,63.1,47.2,68z M68.9,68.1c-0.6,0-1.2,0-1.7-0.1c-3.8-0.4-7.2-1.9-10-4.2
	c-3.9-3.3-6.4-8.3-6.4-13.8s2.5-10.4,6.4-13.8c2.7-2.3,6.2-3.9,10-4.2c0.6-0.1,1.2-0.1,1.7-0.1C78.9,31.9,87,40,87,50
	C87,60,78.9,68.1,68.9,68.1z"/>
</svg>
