<svg id="Layer_1" data-name="Layer 1" xmlns="http://www.w3.org/2000/svg" viewBox="0 0 36 36"><defs><style>.cls-1{fill:#fd5000;}</style></defs><path class="cls-1" d="M36,6.19V29.81a1.52,1.52,0,0,0-.06.2,6.4,6.4,0,0,1-6.55,5.55c-7.59,0-15.18,0-22.77,0a6.74,6.74,0,0,1-1.19-.08A6.35,6.35,0,0,1,0,29.07V6.93A6.34,6.34,0,0,1,6.41.45Q18,.42,29.6.45a6.33,6.33,0,0,1,6.22,4.89C35.89,5.62,35.94,5.9,36,6.19ZM11.35,20.25c.3,0,.55,0,.79,0,.88,0,1.76,0,2.63-.15a5.07,5.07,0,0,0,4.66-5.31A4.88,4.88,0,0,0,16.48,10a5.79,5.79,0,0,0-2.4-.6c-1.91,0-3.82,0-5.72,0-.27,0-.27.17-.26.35q0,7.54,0,15.08c0,.28.1.36.37.36.83,0,1.67,0,2.5,0,.31,0,.4-.1.4-.41,0-1.38,0-2.76,0-4.14Zm9.74,1.57c0,.18-.05.3-.05.42,0,.73,0,1.46,0,2.18a.55.55,0,0,0,.4.58,9.39,9.39,0,0,0,3.86.56A6.15,6.15,0,0,0,27.64,25a3.43,3.43,0,0,0,2.1-2.93A3.13,3.13,0,0,0,28,18.85c-.61-.34-1.27-.6-1.9-.91s-1.05-.49-1.56-.78a.64.64,0,0,1-.33-.72.7.7,0,0,1,.61-.56,5.49,5.49,0,0,1,.9-.09,7.08,7.08,0,0,1,3,.65c.31.15.42.07.42-.29,0-.71,0-1.43,0-2.14a.48.48,0,0,0-.37-.51,9.87,9.87,0,0,0-3.54-.38,5.24,5.24,0,0,0-2.29.6,3.43,3.43,0,0,0-.24,6c.72.44,1.52.74,2.29,1.12a7.58,7.58,0,0,1,1.22.67.66.66,0,0,1-.23,1.2,2.73,2.73,0,0,1-.41.1,7.1,7.1,0,0,1-4-.75Z"/><path class="cls-1" d="M11.4,12.36a8.56,8.56,0,0,1,3.27.24,2.18,2.18,0,0,1,1.5,2A2.17,2.17,0,0,1,14.86,17a5.6,5.6,0,0,1-1.56.4c-.62.06-1.25,0-1.9,0Z"/></svg>