<svg id="Layer_1" data-name="Layer 1" xmlns="http://www.w3.org/2000/svg" viewBox="0 0 36 36"><defs><style>.cls-1{fill:#fd5000;}</style></defs><path class="cls-1" d="M0,29.88V6.11A.67.67,0,0,0,.06,6,6.36,6.36,0,0,1,6.57.44H29.42a7.41,7.41,0,0,1,1.15.08A6.35,6.35,0,0,1,36,6.92V29.07a6.34,6.34,0,0,1-6.41,6.47q-11.6,0-23.2,0A6.33,6.33,0,0,1,.18,30.66C.11,30.4.06,30.14,0,29.88Zm11.81-9.63h.85a11.22,11.22,0,0,0,3.21-.3,5.31,5.31,0,0,0,2.91-8.49,5.65,5.65,0,0,0-4.33-2c-1.8-.07-3.6,0-5.4,0-.49,0-.5,0-.5.5V24.72c0,.1,0,.21,0,.28s.17.24.25.24c.91,0,1.81,0,2.71,0,.28,0,.29-.16.29-.37V20.25Zm13.33-5.56c-.05-.31-.1-.67-.16-1a.47.47,0,0,0-.55-.45c-.75,0-1.5,0-2.25,0-.27,0-.34.09-.33.35,0,.83.08,1.66.08,2.5q0,4.36,0,8.75c0,.33.1.45.44.45.85,0,1.69,0,2.53,0,.35,0,.44-.11.43-.44,0-2.27,0-4.53,0-6.79a1.13,1.13,0,0,1,.76-1.17l.32-.14a6.38,6.38,0,0,1,2.44-.43c.29,0,.4-.08.4-.38,0-.87,0-1.73,0-2.6,0-.26-.1-.34-.36-.33a4.08,4.08,0,0,0-2.05.54C26.23,13.88,25.69,14.3,25.14,14.69Z"/><path class="cls-1" d="M11.83,12.35a9.14,9.14,0,0,1,3.26.23,2.1,2.1,0,0,1,1.5,1.85A2.25,2.25,0,0,1,15.5,16.9a6.76,6.76,0,0,1-3.67.5Z"/></svg>