<?xml version="1.0" encoding="utf-8"?>
<!-- Generator: Adobe Illustrator 24.3.0, SVG Export Plug-In . SVG Version: 6.00 Build 0)  -->
<svg version="1.1" id="Layer_1" xmlns="http://www.w3.org/2000/svg" xmlns:xlink="http://www.w3.org/1999/xlink" x="0px" y="0px"
	 viewBox="0 0 100 100" style="enable-background:new 0 0 100 100;" xml:space="preserve">
<style type="text/css">
	.st0{fill:#FB8500;}
</style>
<g>
	<path class="st0" d="M26,46.9c4.1,0,8.2,0,12.6,0c-1.4,1.2-2.6,2.2-3.8,3.2c-2.4,1.9-3.3,4.3-2.6,7.4c1.2,4.9,2.2,9.9,3.3,14.9
		c0.3,1.4,1,1.8,2.4,1.4c2-0.5,3.8-1.3,5.4-2.5c2.7-2.1,3.8-5,4.3-8.3c0.2-1.6,0.4-3.3,0.6-4.9c0-0.3,0.1-0.6,0.1-1
		c0.7,0.2,1.5,0.3,2,0.6c1.9,1.2,3.8,2.4,5.4,3.9C62.3,68.3,69,75.2,75.7,82c1.2,1.3,1.3,2.9,0.3,4.3c-1,1.3-2.9,1.7-4.4,0.8
		c-0.4-0.3-0.8-0.6-1.1-0.9c-4.6-4.6-9.2-9.2-13.8-13.8c-0.3-0.3-0.5-0.5-0.8-0.7c-0.7-0.5-1.5-0.4-2,0.2c-0.5,0.6-0.6,1.3-0.1,2
		c0.2,0.3,0.4,0.5,0.7,0.7c4.6,4.6,9.3,9.3,13.9,13.9c1,1,1.5,2.1,1.2,3.5c-0.5,2.5-3.5,3.5-5.4,1.9c-0.4-0.3-0.7-0.6-1-0.9
		c-4.8-4.8-9.6-9.6-14.4-14.4c-0.3-0.3-0.5-0.5-0.8-0.7c-0.7-0.4-1.4-0.3-1.9,0.3c-0.5,0.6-0.6,1.2-0.2,1.9c0.2,0.3,0.5,0.5,0.7,0.8
		c3.6,3.6,7.3,7.2,10.8,10.9c0.6,0.6,1.1,1.5,1.3,2.4c0.3,1.4-0.5,2.7-1.7,3.4c-1.3,0.7-2.8,0.5-3.9-0.5c-0.8-0.7-1.5-1.5-2.3-2.3
		c-3.3-3.3-6.6-6.6-9.8-9.8c-0.2-0.2-0.3-0.3-0.5-0.5c-0.7-0.7-1.6-0.7-2.3-0.1c-0.7,0.6-0.7,1.6,0.1,2.3c1.8,1.9,3.7,3.7,5.6,5.6
		c0.9,0.9,1.4,2,1.1,3.3c-0.5,2.6-3.5,3.6-5.5,1.9c-0.3-0.3-0.6-0.6-0.9-0.9c-6-6-12-12-18-18c-0.5-0.5-0.6-1-0.5-1.7
		c2-9.7,3.9-19.5,5.8-29.2C25.9,47.3,25.9,47.1,26,46.9z"/>
	<path class="st0" d="M58.1,41.5c4.1-2.5,6.7-6,7.7-10.7c0.7-3.4,0.4-6.6-1-9.8c-2.8-6.5-9.5-10.4-16.6-9.7
		c-6.7,0.7-12.5,5.8-14,12.4c-1.5,6.4,0.9,14.8,9.6,18.8c-0.7,0.8-1.4,1.4-2.6,1.3c-2.9-0.1-5.8,0-8.6,0c-0.1-0.1-0.2-0.2-0.2-0.2
		C32.3,41.2,31.1,40,29,39c-3.2-1.4-4.5-6-2.7-9c1.1-1.8,1.1-3.4,0-5.3c-1.9-3.2-0.3-7.8,3.1-9.2c1.8-0.8,2.8-2,3-4
		c0.3-3.9,4.3-6.7,8.1-5.8c1.8,0.4,3.3,0,4.5-1.5c2.6-3,7.4-3,10,0c1.2,1.4,2.7,1.9,4.5,1.4c3.9-0.9,7.8,2,8.1,5.9
		c0.1,1.9,1,3,2.7,3.8c3.8,1.6,5.2,6.1,3.1,9.7c-0.9,1.5-0.9,3,0,4.5c2.2,3.6,0.7,8.1-3.1,9.8c-1.7,0.7-2.6,1.9-2.6,3.7
		c0,0.1,0,0.1,0,0.2c-0.3,2.6-0.8,2.9-3.2,2C62.2,44.4,60.1,43.1,58.1,41.5z"/>
	<path class="st0" d="M77.6,79.9c-0.3-0.4-0.5-0.8-0.7-1.1c-6.4-6.5-12.7-13-19.1-19.4c-2.3-2.3-4.9-4.3-8.2-5.1
		c-2.7-0.6-4.3,0.7-4.6,3.4c-0.2,2.2-0.5,4.5-1,6.6c-0.8,3.1-2.7,5.1-5.8,6.2c-0.5-2.1-0.9-4.1-1.4-6.1c-0.6-2.6-1.1-5.1-1.7-7.7
		c-0.4-1.6,0-2.8,1.3-3.9c3.7-3.1,7.4-6.2,11.1-9.3c2.5-2.1,5.2-2.1,7.8-0.2c1.8,1.3,3.7,2.7,5.6,3.8c3.9,2.2,8.2,2.9,12.7,2.2
		c0.2,0,0.5,0,0.8-0.1c0.5,2.3,0.9,4.5,1.4,6.8c1.3,6.7,2.6,13.4,4,20c0.2,0.9,0.1,1.5-0.6,2C78.8,78.5,78.3,79.1,77.6,79.9z"/>
	<path class="st0" d="M13.3,42.2c2,0.4,4.3,0.8,6.6,1.3c0.5,0.1,1,0.2,1.4,0.3c1.4,0.3,1.9,1,1.6,2.5c-0.6,3-1.2,6-1.8,9.1
		c-1.5,7.3-2.9,14.6-4.4,21.9c-0.4,2.1-0.9,2.4-2.9,2c-2.4-0.5-4.8-0.9-7.2-1.4c-1.4-0.3-1.9-1-1.6-2.4C7.2,65,9.2,54.5,11.3,44.1
		C11.6,42.7,12.1,42.2,13.3,42.2z"/>
	<path class="st0" d="M77,45.6c0-1,0.5-1.6,1.4-1.8c2.7-0.6,5.3-1.1,8-1.6c1.3-0.2,1.9,0.2,2.2,1.5c1.8,9,3.6,18.1,5.4,27.1
		c0.3,1.5,0.6,2.9,0.9,4.4c0.3,1.6-0.1,2.3-1.7,2.6c-2.4,0.5-4.8,1-7.2,1.4c-1.6,0.3-2.2-0.1-2.6-1.7c-1.6-7.9-3.2-15.9-4.7-23.8
		c-0.5-2.4-1-4.9-1.5-7.3C77.1,46.1,77.1,45.8,77,45.6z"/>
	<path class="st0" d="M56.1,35.5c-1.9-1.1-3.6-2.2-5.4-3.3c-0.5-0.3-0.9-0.3-1.4,0c-1.7,1.1-3.5,2.1-5.4,3.3c0.5-2.1,0.9-4,1.4-5.9
		c0.2-0.7,0.1-1.2-0.5-1.7c-1.5-1.2-2.9-2.5-4.6-3.9c1.5-0.1,2.7-0.3,4-0.4c0.5,0,1-0.2,1.5-0.1c1.3,0.2,1.8-0.6,2.2-1.7
		c0.6-1.6,1.3-3.2,2.1-5c0.9,2,1.6,3.8,2.4,5.6c0.3,0.7,0.6,1,1.4,1c2,0.1,3.9,0.3,6.1,0.5c-1.7,1.5-3.2,2.8-4.8,4.1
		c-0.4,0.4-0.6,0.7-0.4,1.2C55.1,31.3,55.6,33.3,56.1,35.5z"/>
</g>
</svg>
