<?xml version="1.0" encoding="utf-8"?>
<!-- Generator: Adobe Illustrator 24.3.0, SVG Export Plug-In . SVG Version: 6.00 Build 0)  -->
<svg version="1.1" id="Layer_1" xmlns="http://www.w3.org/2000/svg" xmlns:xlink="http://www.w3.org/1999/xlink" x="0px" y="0px"
	 viewBox="0 0 110 110" style="enable-background:new 0 0 110 110;" xml:space="preserve">
<style type="text/css">
	.st0{fill:#F5F5F5;}
	.st1{fill:none;stroke:#1529FF;stroke-width:6.8011;stroke-linecap:round;stroke-miterlimit:10;}
</style>
<g>
	<g>
		<path class="st0" d="M55,90.9H26.1c-3.8,0-6.9-3.1-6.9-6.9V54.9c0-3.8,3.1-6.9,6.9-6.9H55c3.8,0,6.9,3.1,6.9,6.9V84
			C61.9,87.8,58.8,90.9,55,90.9z M26.3,83.8h28.5V55.1H26.3V83.8z"/>
	</g>
	<path class="st0" d="M92.7,4.7H17.3C10.5,4.7,5,10.3,5,17V93c0,6.8,5.5,12.3,12.3,12.3h75.4c6.8,0,12.3-5.5,12.3-12.3V17
		C105,10.3,99.5,4.7,92.7,4.7z M17.3,11.9h75.4c2.9,0,5.2,2.3,5.2,5.2v16.5H12.1V17C12.1,14.2,14.5,11.9,17.3,11.9z M92.7,98.1H17.3
		c-2.8,0-5.2-2.3-5.2-5.2V40.7h85.7V93C97.9,95.8,95.5,98.1,92.7,98.1z"/>
	<line class="st1" x1="72.8" y1="54.9" x2="87.2" y2="55.1"/>
	<path class="st0" d="M86.4,73.6H73.5c-2.4,0-4.3-1.9-4.3-4.3v0c0-2.4,1.9-4.3,4.3-4.3h12.8c2.4,0,4.3,1.9,4.3,4.3v0
		C90.7,71.6,88.7,73.6,86.4,73.6z"/>
	<path class="st0" d="M86.4,87.8H73.5c-2.4,0-4.3-1.9-4.3-4.3v0c0-2.4,1.9-4.3,4.3-4.3h12.8c2.4,0,4.3,1.9,4.3,4.3v0
		C90.7,85.9,88.7,87.8,86.4,87.8z"/>
	<path class="st0" d="M86.4,59.3H73.5c-2.4,0-4.3-1.9-4.3-4.3v0c0-2.4,1.9-4.3,4.3-4.3h12.8c2.4,0,4.3,1.9,4.3,4.3v0
		C90.7,57.4,88.7,59.3,86.4,59.3z"/>
	<path class="st0" d="M87.1,26.4H80c-2,0-3.5-1.6-3.5-3.5v0c0-2,1.6-3.5,3.5-3.5h7.2c2,0,3.5,1.6,3.5,3.5v0
		C90.7,24.8,89.1,26.4,87.1,26.4z"/>
	<ellipse class="st0" cx="22.9" cy="22.9" rx="3.6" ry="3.6"/>
	<ellipse class="st0" cx="33.6" cy="22.9" rx="3.6" ry="3.6"/>
	<ellipse class="st0" cx="44.3" cy="22.9" rx="3.6" ry="3.6"/>
</g>
</svg>
