<?xml version="1.0" encoding="utf-8"?>
<!-- Generator: Adobe Illustrator 24.3.0, SVG Export Plug-In . SVG Version: 6.00 Build 0)  -->
<svg version="1.1" id="Layer_1" xmlns="http://www.w3.org/2000/svg" xmlns:xlink="http://www.w3.org/1999/xlink" x="0px" y="0px"
	 viewBox="0 0 110 110" style="enable-background:new 0 0 110 110;" xml:space="preserve">
<style type="text/css">
	.st0{fill:#F5F5F5;}
</style>
<g>
	<path class="st0" d="M5,37c33.4,0,66.6,0,100,0c0,0.5,0,0.9,0,1.3c0,13,0,26,0,39c0,13.8-9.1,24.8-22.7,27.3
		c-1.6,0.3-3.3,0.4-4.9,0.4c-14.9,0-29.8,0-44.6,0c-13.8,0-24.8-9.2-27.3-22.8C5.1,80.9,5,79.4,5,78c0-13.3,0-26.7,0-40
		C5,37.7,5,37.4,5,37z M41.3,64.1c0,4.1,0,8.2,0,12.3c0,3.9,3.6,6,6.9,4.2c7.5-4.1,14.9-8.1,22.3-12.3c3.5-2,3.5-6.3-0.1-8.2
		c-7.3-4.1-14.7-8.1-22.1-12.2c-3.6-2-7.1,0.2-7.1,4.3C41.3,56.1,41.3,60.1,41.3,64.1z"/>
	<path class="st0" d="M59.4,5.2c8.1,0,16-0.9,23.9,0.5c10.5,1.8,19,10.6,21.1,21.1c0,0.2,0,0.5,0.1,0.9c-0.4,0-0.8,0.1-1.2,0.1
		c-6.8,0-13.6,0-20.4,0c-0.5,0-1.2-0.2-1.6-0.6C74.2,20,67,12.9,59.9,5.8C59.8,5.6,59.6,5.4,59.4,5.2z"/>
	<path class="st0" d="M68.8,27.8c-5.5,0-10.8,0-16,0c-0.4,0-0.8-0.2-1.1-0.5c-7.2-7.2-14.4-14.3-21.5-21.5c-0.1-0.1-0.2-0.3-0.4-0.5
		c0.5,0,0.8-0.1,1.2-0.1c4.8,0,9.6,0,14.4,0c0.5,0,1.1,0.2,1.4,0.6C54,12.8,61.2,20,68.4,27.2C68.5,27.3,68.6,27.4,68.8,27.8z"/>
	<path class="st0" d="M5.4,27.7c1.7-8.8,6.5-15.3,14.2-19.5c6.6,6.5,13,13,19.5,19.5C27.9,27.7,16.7,27.7,5.4,27.7z"/>
</g>
</svg>
