<?xml version="1.0" encoding="utf-8"?>
<!-- Generator: Adobe Illustrator 24.3.0, SVG Export Plug-In . SVG Version: 6.00 Build 0)  -->
<svg version="1.1" id="Layer_1" xmlns="http://www.w3.org/2000/svg" xmlns:xlink="http://www.w3.org/1999/xlink" x="0px" y="0px"
	 viewBox="0 0 110 110" style="enable-background:new 0 0 110 110;" xml:space="preserve">
<style type="text/css">
	.st0{fill:#F5F5F5;}
</style>
<g>
	<g>
		<path class="st0" d="M41,58.5H26.6c-2.1,0-3.7-1.7-3.7-3.7V41.4c0-2.1,1.7-3.7,3.7-3.7H41c2.1,0,3.7,1.7,3.7,3.7v13.4
			C44.7,56.8,43,58.5,41,58.5z M27.1,54.2h13.3V41.9H27.1V54.2z"/>
	</g>
	<path class="st0" d="M93.6,7.6H16.4C10.1,7.6,5,12.6,5,18.9v72.2c0,6.3,5.1,11.4,11.4,11.4h77.3c6.3,0,11.4-5.1,11.4-11.4V18.9
		C105,12.6,99.9,7.6,93.6,7.6z M16.4,13.3h77.3c3.1,0,5.7,2.5,5.7,5.7v5.2H10.7v-5.2C10.7,15.8,13.2,13.3,16.4,13.3z M93.6,96.7
		H16.4c-3.1,0-5.6-2.5-5.6-5.6V29.8h88.6v61.3C99.3,94.2,96.8,96.7,93.6,96.7z"/>
	<circle class="st0" cx="17.4" cy="18.9" r="2.2"/>
	<circle class="st0" cx="25.6" cy="18.9" r="2.2"/>
	<circle class="st0" cx="33.8" cy="18.9" r="2.2"/>
	<path class="st0" d="M88,41L88,41c0,1.6-1.3,2.9-2.9,2.9H53.9c-1.6,0-2.9-1.3-2.9-2.9v0c0-1.6,1.3-2.9,2.9-2.9h31.3
		C86.8,38.1,88,39.4,88,41z"/>
	<path class="st0" d="M88,54.6L88,54.6c0,1.6-1.3,2.9-2.9,2.9H53.9c-1.6,0-2.9-1.3-2.9-2.9v0c0-1.6,1.3-2.9,2.9-2.9h31.3
		C86.8,51.8,88,53,88,54.6z"/>
	<path class="st0" d="M88,68.9L88,68.9c0,1.6-1.3,2.9-2.9,2.9h-60c-1.6,0-2.9-1.3-2.9-2.9l0,0c0-1.6,1.3-2.9,2.9-2.9h60
		C86.8,66.1,88,67.4,88,68.9z"/>
	<path class="st0" d="M78,83.2L78,83.2c0,1.6-1.3,2.9-2.9,2.9H25.2c-1.6,0-2.9-1.3-2.9-2.9v0c0-1.6,1.3-2.9,2.9-2.9h49.9
		C76.7,80.4,78,81.6,78,83.2z"/>
</g>
</svg>
