<?xml version="1.0" encoding="utf-8"?>
<!-- Generator: Adobe Illustrator 24.3.0, SVG Export Plug-In . SVG Version: 6.00 Build 0)  -->
<svg version="1.1" id="Layer_1" xmlns="http://www.w3.org/2000/svg" xmlns:xlink="http://www.w3.org/1999/xlink" x="0px" y="0px"
	 viewBox="0 0 1920 410" style="enable-background:new 0 0 1920 410;" xml:space="preserve">
<style type="text/css">
	.st0{clip-path:url(#SVGID_1_);fill:#303030;}
	.st1{clip-path:url(#SVGID_1_);}
	.st2{fill:#F5F5F5;}
	.st3{fill:#33C4B8;}
	.st4{fill:none;stroke:#FFFFFF;stroke-width:0.4264;stroke-linecap:round;stroke-miterlimit:10;}
	.st5{fill:#00ABA1;}
	.st6{fill:#FFAF9A;}
	.st7{fill:#FF7F74;}
	.st8{fill:#404067;}
	.st9{fill:#252241;}
	.st10{fill:none;stroke:#595980;stroke-width:1.2793;stroke-miterlimit:10;}
	.st11{fill:#121127;}
	.st12{fill:none;stroke:#252241;stroke-width:0.8529;stroke-miterlimit:10;}
	.st13{fill:none;stroke:#FF7F74;stroke-width:0.8529;stroke-miterlimit:10;}
	.st14{fill:#FA8100;}
	.st15{fill:none;stroke:#FA8100;stroke-width:1.2793;stroke-miterlimit:10;}
	.st16{fill:#595980;}
	.st17{fill:#FFFFFF;}
	.st18{fill:#FD544F;}
	.st19{fill:#FFAB3B;}
	.st20{fill:#353554;}
	.st21{fill:none;stroke:#FFFFFF;stroke-width:0.65;stroke-linecap:round;stroke-miterlimit:10;}
	.st22{fill:none;stroke:#EC3333;stroke-width:1.95;stroke-miterlimit:10;}
	.st23{fill:#EC3333;}
	.st24{fill:#CC2833;}
	.st25{fill:none;stroke:#FD544F;stroke-width:1.95;stroke-miterlimit:10;}
	.st26{fill:none;stroke:#252241;stroke-width:1.3;stroke-miterlimit:10;}
	.st27{fill:none;stroke:#FF7F74;stroke-width:1.3;stroke-miterlimit:10;}
	.st28{fill:#00ADBF;}
	.st29{fill:none;stroke:#00ADBF;stroke-width:1.95;stroke-miterlimit:10;}
</style>
<g>
	<defs>
		<rect id="SVGID_3_" x="0" y="0" transform="matrix(-1 -2.818780e-11 2.818780e-11 -1 1920 410)" width="1920" height="410"/>
	</defs>
	<clipPath id="SVGID_1_">
		<use xlink:href="#SVGID_3_"  style="overflow:visible;"/>
	</clipPath>
	<rect x="0" y="0" transform="matrix(-1 -2.818691e-11 2.818691e-11 -1 1920 410)" class="st0" width="1920" height="410"/>
	<g class="st1">
		<path class="st2" d="M269.1,412.4c0,0-30.9-22.2-15.2-54.9s-6.3-70.5-55.9-60.3c-32.7,6.8-49.4-20.2-78.6-48.1
			s-63.5-21.7-85.9,12.1s-62.9,88.6-82.1,66.9c-19.2-21.7-71.4,17.3-32.3,84.3H269.1z"/>
		<g>
			<g>
				<path class="st3" d="M243.7,361.9c-31.5,9.8-30.3,56.1-30.3,56.1h5C224.3,400.1,275.2,352.1,243.7,361.9z"/>
				<path class="st4" d="M253.1,361.4c0,0-35.4,16.7-37.4,56.6"/>
			</g>
			<g>
				<path class="st5" d="M251.6,376.7c-28.2,2.9-35,42-35,42l4.2,0.9C228.9,405.6,279.8,373.8,251.6,376.7z"/>
				<path class="st4" d="M259.7,377.9c0,0-32.6,8.1-41.1,41.3"/>
			</g>
			<g>
				<path class="st3" d="M261.3,390.6c-27.9-4.5-44.7,31.6-44.7,31.6l3.9,1.9C231.9,412.6,289.2,395,261.3,390.6z"/>
				<path class="st4" d="M268.7,393.8c0,0-33.6-0.6-50.3,29.3"/>
			</g>
		</g>
		<g>
			<g>
				<polygon class="st6" points="27.7,346.8 -1.2,410.5 21.7,411.4 48.6,360.5 				"/>
				<path class="st7" d="M27.7,346.8l20.9,13.7l-8.5,16.1c-5.7-5-12.7-12.2-16.8-20.2L27.7,346.8z"/>
				<path class="st8" d="M74.1,296.9c8.5,8.4,8.4,32.1-18.6,70.8c0,0-21-1.3-35-18.9C20.5,348.9,56.9,279.9,74.1,296.9z"/>
				<path class="st9" d="M35.4,361.4c9.9-12.9,16.5-38.1,16.5-38.1l7.7,7.7l-0.1,14.2L54,367.6C50.9,367.2,43.5,365.8,35.4,361.4z"
					/>
				<path class="st10" d="M26.5,349.1c0,0,6.2,7.2,18.6,11.5"/>
				<path class="st8" d="M85.3,290.4c0,0,33.1,0,40.7,37.3c7.2,34.9,6.1,84.7,6.1,84.7H37.7c0,0,8.4-32.4,13-80.5
					C54.3,294.4,75.2,290.4,85.3,290.4z"/>
				<path class="st9" d="M113.4,382.3c-6.1-13.9-19.3-37.5-16.7-67.5c6.5,2.5,32.7,35.2,32.7,35.2c3.4,30.6,2.7,62.4,2.7,62.4H82.3
					C82.3,412.4,119.5,396.2,113.4,382.3z"/>
				<path class="st6" d="M138.5,338c0,0,18.7,42.5,22.2,46.6s25.4,17,25.4,17l-16.3,9.8l-6.6-0.7c-12.3-1.3-23.1-8.7-28.8-19.7
					c-6.4-12.2-14-27.4-16-33.2C115,347.4,138.5,338,138.5,338z"/>
				<path class="st7" d="M146.8,356.5c-1.9,5.5-7.3,17.9-18.3,23.1c-4.5-9-8.7-17.6-10-21.7c-1.3-3.8,1-7.4,4.5-10.6l22.3,5.8
					C145.7,354.2,146.2,355.3,146.8,356.5z"/>
				<g>
					<path class="st6" d="M78.3,302.2L78.3,302.2c3.7,0,6.7-3,6.7-6.7v-21.2H71.6v21.2C71.6,299.2,74.6,302.2,78.3,302.2z"/>
				</g>
				<path class="st7" d="M85,292c-7.6,0-12.2-6.1-13.4-8v-9.7H85V292z"/>
				<path class="st10" d="M88.5,297.2c0,0-1.1,9-10.2,9.2c-9.1,0.2-9.8-7.9-9.8-7.9"/>
				<g>
					<path class="st8" d="M102.3,296.6c-9,7.8-9.1,33,15.2,73.5c0,0,21.1-3.8,33.7-20.5C151.1,349.6,120.6,280.8,102.3,296.6z"/>
					<path class="st10" d="M145.9,345.8c-8.9,13.2-28.5,18.3-28.5,18.3"/>
				</g>
			</g>
			<g>
				<path class="st11" d="M92.4,263.4c0,0,2.5-5.8-1.2-10.2s-14.6-4.2-14.6-4.2l5.7,11.3l4.7,4.3L92.4,263.4z"/>
				<g>
					<path class="st6" d="M69,279.7c0,0,5.9,10.4,16.8,8.2c10.9-2.2,10-18.6,4.1-31c-6.7-14.3-23.7-9.6-25,2.9
						C63.8,270.6,69,279.7,69,279.7z"/>
				</g>
				<path class="st9" d="M62.8,270.8c0,0-5.1-6.5-5-10.9c0.1-4.4,3.4-5.2,3.4-5.2s-1.9-13.4,22.1-13.2c18.3,0.1,18.7,12.5,6.9,16.2
					c-9.3,2.9-21.7,0-21.7,0s3,7.4-1,11.8C67.5,269.5,64.3,269.5,62.8,270.8z"/>
				<path class="st11" d="M67.5,269.5c0,0-3.1,0-4.7,1.3c0,0-3-3.8-4.3-7.6c0,0,3.5,2.7,6.4,0c2.9-2.8,0.3-10.3,0.3-10.3
					s5.6,3.7,18.4,2.4c13.1-1.3,14.6-5.7,14.6-5.7c0,3.2-2.9,6.4-8,8.1c-9.3,2.9-21.7,0-21.7,0S71.6,265.1,67.5,269.5z"/>
				<g>
					<path class="st12" d="M76.4,268.4c0,0,2.4-2.6,5.8-0.9"/>
					<path class="st9" d="M78.4,271.9c-0.3-1.3,0.3-2.5,1.2-2.7c0.9-0.2,1.9,0.7,2.1,2"/>
				</g>
				<g>
					<path class="st12" d="M91.8,265.2c0,0-3.3-1.4-5.7,1.5"/>
					<path class="st9" d="M91.4,269.3c-0.3-1.3-1.2-2.2-2.1-2c-0.9,0.2-1.4,1.4-1.2,2.7"/>
				</g>
				<path class="st13" d="M86,270.4c0,0,0.7,3.8,3.2,5s-0.9,2.9-2.6,2.8"/>
				<path class="st13" d="M79.9,278.8c0,0,3,5,9.6,1.6"/>
				<path class="st6" d="M71.2,275.8c0,0,0.9,2.9-2.5,3.6c-4.1,0.8-8.8-4.8-6.2-8.9c1.7-2.6,5-2.1,5.9-0.9"/>
				<g>
					<path class="st7" d="M67.4,271.4c-0.5-0.2-1-0.2-1.5-0.1c-0.5,0.1-0.8,0.4-1.1,0.8c-0.4,0.8-0.3,1.8,0,2.7
						c0.4,0.9,1,1.7,1.9,1.9c0.9,0.2,2,0,2.6-0.9c-0.1,0.5-0.5,1-1.1,1.3c-0.5,0.3-1.1,0.3-1.7,0.3c-0.6-0.1-1.2-0.4-1.6-0.8
						c-0.4-0.4-0.8-0.9-1-1.5c-0.4-1.1-0.5-2.4,0.2-3.4c0.4-0.5,1-0.8,1.6-0.8C66.5,270.8,67,271,67.4,271.4z"/>
				</g>
			</g>
			<ellipse transform="matrix(0.9794 -0.2021 0.2021 0.9794 -54.1 19.2688)" class="st9" cx="67.3" cy="274.5" rx="5.4" ry="6.9"/>
			
				<ellipse transform="matrix(0.9794 -0.2021 0.2021 0.9794 -54.1963 18.9634)" class="st14" cx="65.8" cy="274.9" rx="5.4" ry="6.9"/>
			<ellipse transform="matrix(0.9794 -0.2021 0.2021 0.9794 -54.2492 18.7955)" class="st9" cx="64.9" cy="275" rx="2.7" ry="3.4"/>
			<path class="st15" d="M68.6,279.6c0,0,5.2,6.5,12.6,5.7"/>
			<circle class="st9" cx="80.9" cy="285.4" r="1.4"/>
			<path class="st14" d="M67.5,242.8c4.3-2.9,9.6-3.3,14.2-1.3c-1.4,0-2.7,0.1-3.9,0.2c-3-0.5-6.4,0-9.7,2.2
				c-11,7.4-4.9,21.5-2.8,25.6c0.1,0.2,0.3,0.6,0,0.9L65,270l-0.6,0.2c0,0,0-0.1-0.1-0.1C62.1,265.7,55.6,250.9,67.5,242.8z"/>
		</g>
		<g>
			<rect x="88.5" y="408.6" class="st16" width="48.4" height="3.8"/>
			
				<rect x="136.9" y="408.6" transform="matrix(-1 -1.224647e-16 1.224647e-16 -1 350.6718 821.0551)" class="st8" width="76.9" height="3.8"/>
			<polygon class="st9" points="154,353 138.8,408.6 213.8,408.6 229,353 			"/>
			
				<ellipse transform="matrix(0.3588 -0.9334 0.9334 0.3588 -237.5842 418.7733)" class="st16" cx="186" cy="382.3" rx="4.8" ry="4.1"/>
			<polygon class="st8" points="229,353 227.5,351.4 152.5,351.4 136.9,408.6 138.8,408.6 154,353 			"/>
		</g>
		<g>
			<g>
				<circle class="st14" cx="143.1" cy="262.7" r="25"/>
				<g>
					<g>
						<g>
							<circle class="st17" cx="143.1" cy="256.1" r="5.7"/>
						</g>
						<path class="st17" d="M136.8,261.6c1.5,1.8,3.8,2.9,6.3,2.9s4.8-1.1,6.3-2.9c3.7,2.2,6.2,6.2,6.2,10.8h-25.1
							C130.6,267.8,133.1,263.8,136.8,261.6z"/>
					</g>
				</g>
			</g>
			<polygon class="st14" points="138.9,283.5 125.6,292.1 129.6,278 			"/>
		</g>
		<g>
			<path class="st18" d="M152.5,313.2v3.1l3.4,0.9c0.3,1.5,0.9,3,1.7,4.2l-1.8,3.1l2.2,2.2l3.1-1.7c1.3,0.8,2.7,1.5,4.2,1.8l1,3.5
				h3.1l0.9-3.4c1.5-0.3,3-0.9,4.2-1.7l3.1,1.8l2.2-2.2l-1.7-3.1c0.8-1.3,1.5-2.7,1.8-4.2l3.5-1v-3.1l-3.4-0.9
				c-0.3-1.5-0.9-3-1.7-4.2l1.8-3.1l-2.2-2.2l-3.1,1.7c-1.3-0.8-2.7-1.5-4.2-1.8l-1-3.5h-3.1l-0.9,3.4c-1.5,0.3-3,0.9-4.2,1.7
				l-3.1-1.8l-2.2,2.2l1.7,3.1c-0.8,1.3-1.5,2.7-1.8,4.2L152.5,313.2z M167.9,306.4c4.7,0,8.5,3.8,8.5,8.5c0,4.7-3.8,8.5-8.5,8.5
				c-4.7,0-8.5-3.8-8.5-8.5C159.5,310.2,163.3,306.4,167.9,306.4z"/>
			
				<ellipse transform="matrix(0.9239 -0.3827 0.3827 0.9239 -107.7002 88.2347)" class="st18" cx="167.9" cy="314.8" rx="4.9" ry="4.9"/>
		</g>
		<g>
			<g>
				<g>
					<rect x="76.2" y="383" class="st17" width="23.7" height="29.4"/>
				</g>
				<g>
					<g>
						<g>
							<path class="st17" d="M67,406.7v-18c0-0.8,0.6-1.4,1.4-1.4H84c0.8,0,1.4,0.6,1.4,1.4v18c0,0.8-0.6,1.4-1.4,1.4H68.5
								C67.7,408.2,67,407.5,67,406.7z M82.5,390.1H69.9v15.1h12.6V390.1z"/>
						</g>
					</g>
					<g>
						<g>
							<g>
								<rect x="92.8" y="383" class="st19" width="0.9" height="12.9"/>
							</g>
						</g>
						<g>
							<g>
								<rect x="91.3" y="392.9" class="st19" width="3.8" height="6"/>
							</g>
						</g>
					</g>
				</g>
			</g>
		</g>
	</g>
	<g class="st1">
		<path class="st20" d="M1550.9,410.6c0,0,47.1-33.8,23.2-83.7s9.6-107.5,85.3-91.8c49.8,10.3,76.4,34.6,120.9-7.9
			s101-35.3,135.2,16.2c34.1,51.5,90.5,71.8,119.7,38.8c29.3-33.1,108.8,26.4,49.3,128.5H1550.9z"/>
		<path class="st2" d="M1550.9,410.6c0,0,47.1-33.8,23.2-83.7s9.6-107.5,85.3-91.8c49.8,10.3,76.4,34.6,120.9-7.9
			s101-35.3,135.2,16.2c34.1,51.5,90.5,71.8,119.7,38.8c29.3-33.1,108.8,26.4,49.3,128.5H1550.9z"/>
		<g>
			<g>
				<path class="st3" d="M1863.3,342c-39.3,12.2-37.8,70-37.8,70h6.3C1839.2,389.7,1902.6,329.8,1863.3,342z"/>
				<path class="st21" d="M1875.1,341.4c0,0-44.1,20.9-46.6,70.6"/>
			</g>
			<g>
				<path class="st5" d="M1873.2,360.5c-35.1,3.6-43.7,52.4-43.7,52.4l5.3,1.1C1844.9,396.5,1908.3,356.9,1873.2,360.5z"/>
				<path class="st21" d="M1883.2,361.9c0,0-40.6,10.1-51.2,51.5"/>
			</g>
			<g>
				<path class="st3" d="M1885.2,377.8c-34.9-5.6-55.7,39.4-55.7,39.4l4.8,2.4C1848.6,405.2,1920.1,383.3,1885.2,377.8z"/>
				<path class="st21" d="M1894.5,381.8c0,0-41.8-0.7-62.7,36.5"/>
			</g>
		</g>
		<path class="st11" d="M1773.7,161.4c-11.5-7.5-23.2-2.6-23.2-2.6l-14,12.4l-18.3,13.9c0,0-9.9,6.7-4.4,19.2
			c5.5,12.5-8.9,17-6.7,31.8c2.2,14.8,37,27,60.5,17.7c0,0,9.5,28.1,46.7,23.7c37.2-4.4,21.9-37.1,4.4-49.2
			c-17.5-12.1-3.7-27.5-19.1-37.5C1784.1,180.7,1791.4,172.9,1773.7,161.4z"/>
		<g>
			<g>
				<path class="st18" d="M1748.9,234.5c12.9,12.7,12.8,48.9-28.3,107.9c0,0-32.1-2-53.3-28.8
					C1667.3,313.7,1722.7,208.6,1748.9,234.5z"/>
				<path class="st22" d="M1676.4,314.1c0,0,9.4,11,28.3,17.5"/>
				<path class="st23" d="M1766.1,224.6c0,0,50.4,0,62.1,56.8c10.9,53.1,9.3,129.2,9.3,129.2h-143.9c0,0,12.8-49.4,19.8-122.8
					C1718.7,230.7,1750.7,224.6,1766.1,224.6z"/>
				<path class="st24" d="M1830.1,291.8l-14.1-9.3l-44.8-7.8c0,0,0,45.3,0,71.5c0,26.2-61.1,48.1-61.1,48.1s-2.4,7.9,0.5,16.2h126.8
					C1837.4,410.6,1838.9,343.9,1830.1,291.8z"/>
				<path class="st6" d="M1787.5,312.7c0,0,2,38.7,6.2,52.7c2,6.7-66.8,31.3-66.8,31.3l2.8,22.9c0,0,76-7.5,98.2-25.8s5.1-81,5.1-81
					H1787.5z"/>
				<g>
					<path class="st6" d="M1755.3,242.5L1755.3,242.5c5.6,0,10.2-4.6,10.2-10.2v-32.3h-20.4v32.3
						C1745.1,238,1749.7,242.5,1755.3,242.5z"/>
				</g>
				<path class="st7" d="M1745.1,232.3c0,0.5,0.1,1,0.1,1.5c13.8-3.3,17.5-18.5,17.5-18.5s1.6-6.6,1.1-15.4h-18.7V232.3z"/>
				<path class="st25" d="M1770.9,235c0,0-1.6,13.7-15.5,14c-13.9,0.3-14.9-12-14.9-12"/>
				<g>
					<path class="st18" d="M1789.4,228.2c18.1,0.6,42.4,30.6,52.1,101.9c0,0-28.7,15.6-59.5,7.8C1782,337.8,1752.6,227,1789.4,228.2
						z"/>
					<path class="st22" d="M1784.5,328.4c23.2,7.3,51.4-5.4,51.4-5.4"/>
				</g>
			</g>
			<g>
				<path class="st11" d="M1721.7,194.5c0,0-6.1-7.4-2.5-15.5c3.5-8.1,19.7-12.3,19.7-12.3l-3.6,18.9l-5.1,8.2L1721.7,194.5z"/>
				<g>
					<path class="st6" d="M1762.9,208.7c0,0-4.3,17.8-21.2,19c-16.8,1.3-22.4-23-19.1-43.7c3.9-23.7,30.7-24.1,37.9-6.2
						C1766.7,193.1,1762.9,208.7,1762.9,208.7z"/>
				</g>
				<path class="st9" d="M1745.8,201.2c-0.2-2-1.4-3.6-2.8-3.5c-1.4,0.1-2.4,1.8-2.3,3.8c0.2,2,1.4,3.6,2.8,3.5
					C1744.9,204.9,1745.9,203.2,1745.8,201.2z"/>
				<path class="st11" d="M1725.7,158.7c35.2-10.4,38,10.1,38,10.1s5.2-0.3,7.2,6.2s-2.8,18.1-2.8,18.1c-2.8-1.4-7.4,0-7.4,0
					c-7.8-4.7-6.5-16.8-6.5-16.8s-2.7,7.3-13,5.3c-10.3-2-11,11.7-19.4,9.3s-11.6-11.2-9.4-19.6
					C1715.3,161,1725.7,158.7,1725.7,158.7z"/>
				<path class="st11" d="M1770.9,174.9c-2-6.5-7.2-6.2-7.2-6.2s-0.8-5.8-6.8-9.6l-2.4-0.7c0,0,5.6,12.5-5.5,15.9
					c-4.3,1.3-2.9,3.9,0.4,6.6c3.7-1.6,4.9-4.7,4.9-4.7s-0.5,4.1,0.7,8.4c4.9,2.8,10.1,5,10.5,5.1c0.4,0,2.2-0.5,4.1-1.1
					C1770.8,184.7,1772.1,178.9,1770.9,174.9z"/>
				<path class="st11" d="M1741.3,181.5c10.3,2,13-5.3,13-5.3s-1.4,12.1,6.5,16.8c0,0,4.6-1.4,7.4,0c0,0,3.9-9.6,3.1-16.2l-0.1-0.9
					c0,0-2.8,5.8-9,4.7c-6.2-1.1-6.2-11.3-6.2-11.3s-1.5,5.6-10.8,5.1c-9.3-0.6-9.5,5.4-21.7,6.2c-12,0.8-9.8-11.9-9.7-12.3
					c-0.5,0.9-0.8,1.9-1.1,3c-2.3,8.4,0.9,17.2,9.4,19.6S1731,179.5,1741.3,181.5z"/>
				<g>
					<path class="st26" d="M1747.2,195.2c0,0-4.7-2.8-8.8,1.1"/>
				</g>
				<g>
					<path class="st26" d="M1723.4,196.9c0,0,4.2-3.5,8.9-0.2"/>
					<path class="st9" d="M1730.8,202.3c-0.2-2-1.4-3.6-2.8-3.5c-1.4,0.1-2.4,1.8-2.3,3.8c0.2,2,1.4,3.6,2.8,3.5
						C1729.9,206.1,1731,204.3,1730.8,202.3z"/>
				</g>
				<path class="st27" d="M1734,202.1c0,0,0.5,5.9-2.5,8.6c-3.1,2.7,2.6,3.8,5,2.9"/>
				<path class="st17" d="M1731.6,218c11.1,2.2,13.4-6.4,13.4-6.4s1.3,8.1-3.2,10.3C1737.2,224.1,1731.6,218,1731.6,218z"/>
				<path class="st6" d="M1758,203.8c0,0-0.1,4.6,5.2,4.3c6.3-0.5,10.9-10.8,5.4-15.6c-3.5-3.1-8.2-1-9,1.2"/>
				<g>
					<path class="st7" d="M1761.6,195.8c0.5-0.7,1.2-1.2,2.1-1.4c0.9-0.2,1.9,0,2.6,0.5c0.8,0.6,1.2,1.4,1.5,2.3
						c0.3,0.9,0.3,1.8,0.2,2.6c-0.1,0.9-0.4,1.8-0.8,2.5c-0.5,0.8-1.2,1.5-2,1.8c-0.8,0.3-1.7,0.5-2.6,0.3c-0.9-0.2-1.6-0.7-2.1-1.4
						c0.6,0.5,1.4,0.8,2.1,0.8c0.7,0,1.5-0.3,2.1-0.6c1.2-0.7,1.9-2.1,2-3.6c0.2-1.4-0.1-3-1.1-4c-0.5-0.5-1.2-0.7-1.9-0.7
						C1763,195,1762.3,195.3,1761.6,195.8z"/>
				</g>
			</g>
			
				<ellipse transform="matrix(0.9972 -7.479619e-02 7.479619e-02 0.9972 -10.0477 132.4375)" class="st9" cx="1763.1" cy="200.4" rx="8.3" ry="10.5"/>
			
				<ellipse transform="matrix(0.9972 -7.479619e-02 7.479619e-02 0.9972 -10.0276 132.6162)" class="st28" cx="1765.5" cy="200.2" rx="8.3" ry="10.5"/>
			
				<ellipse transform="matrix(0.9972 -7.479619e-02 7.479619e-02 0.9972 -10.0165 132.7145)" class="st9" cx="1766.9" cy="200.1" rx="4.1" ry="5.2"/>
			<path class="st29" d="M1762.9,204.3c0,0-3.1,12.4-13.8,15.8"/>
			<circle class="st9" cx="1749.4" cy="220" r="2.2"/>
			<path class="st28" d="M1749.6,154c-7.5-2.5-15.4-0.9-21.4,4c2-0.5,3.9-1,5.7-1.3c4.2-2,9.4-2.7,15.1-0.9
				c19.2,6.3,16.2,29.4,14.8,36.4c-0.1,0.4-0.2,1,0.4,1.4l0.4-0.9l1,0.1c0,0,0-0.1,0-0.3C1767.2,185.3,1770.3,160.8,1749.6,154z"/>
		</g>
		<g>
			
				<rect x="1732.1" y="404.8" transform="matrix(-1 -4.480561e-11 4.480561e-11 -1 3537.9358 815.3848)" class="st16" width="73.8" height="5.8"/>
			<rect x="1614.9" y="404.8" class="st8" width="117.2" height="5.8"/>
			<polygon class="st9" points="1705.9,319.9 1729.1,404.8 1614.9,404.8 1591.7,319.9 			"/>
			
				<ellipse transform="matrix(0.9334 -0.3588 0.3588 0.9334 -20.5099 618.8362)" class="st16" cx="1657.2" cy="364.7" rx="6.3" ry="7.3"/>
			<polygon class="st8" points="1591.7,319.9 1594,317.6 1708.3,317.6 1732.1,404.8 1729.1,404.8 1705.9,319.9 			"/>
		</g>
		<g>
			<g>
				<circle class="st19" cx="1852.3" cy="182.4" r="38.2"/>
				<polygon class="st19" points="1845.9,214 1825.5,227.2 1831.5,205.7 				"/>
			</g>
			<g>
				<g>
					<g>
						<g>
							<path class="st17" d="M1862.2,187.4l-3,3l9.4,9.4l3-3c0.4-0.4,0.4-1,0-1.4l-8-8C1863.1,187,1862.5,187,1862.2,187.4z
								 M1833.2,176.3c1.1,5.2,7.6,12.1,10.3,14.8c2.7,2.7,9.6,9.2,14.8,10.3c2,0.4,6.3,1.2,9.3-0.9l-9.3-9.3c0,0,0,0,0,0
								c-0.9,0.5-3.3,1-7.5-3.7c-0.3-0.3-0.5-0.5-0.7-0.7c-2.4-2.4-2.4-2.4-2.4-2.4c-0.2-0.2-0.4-0.4-0.7-0.7
								c-4.7-4.2-4.2-6.6-3.7-7.5c0,0,0,0,0,0l-9.3-9.3C1832,170,1832.8,174.3,1833.2,176.3z M1837.8,163.1l-3,3l9.4,9.4l3-3
								c0.4-0.4,0.4-1,0-1.4l-8-8C1838.8,162.7,1838.2,162.7,1837.8,163.1z"/>
						</g>
					</g>
				</g>
			</g>
		</g>
	</g>
</g>
</svg>
