<svg id="Layer_1" data-name="Layer 1" xmlns="http://www.w3.org/2000/svg" viewBox="0 0 500 500"><defs><style>.cls-1{fill:#fff;}.cls-2,.cls-3{fill:#2c2c60;}.cls-3{font-size:17.08px;font-family:Montserrat-Bold, Montserrat;font-weight:700;}.cls-4{fill:#fb8500;}</style></defs><rect class="cls-1" x="11.83" y="182.73" width="476.33" height="134.54"/><path class="cls-2" d="M417.22,219.09l-6.56,15.3a5.64,5.64,0,0,1-3.18,7.48V252.5h4.87l14.34-33.41Z"/><path class="cls-2" d="M399.85,236.61a5.64,5.64,0,0,1,.45-2.22l-6.55-15.3h-9.48l14.35,33.41h4.86V241.87A5.62,5.62,0,0,1,399.85,236.61Z"/><text class="cls-3" transform="translate(455.93 203.55)">TM</text><path class="cls-2" d="M191.53,230.76c0-13.1,10.06-22.48,23.6-22.48,7.51,0,13.79,2.73,17.89,7.7l-6.46,6a14,14,0,0,0-10.93-5.09c-8.14,0-13.92,5.71-13.92,13.91s5.78,13.91,13.92,13.91a13.85,13.85,0,0,0,10.93-5.15l6.46,6c-4.1,5-10.38,7.76-18,7.76C201.59,253.24,191.53,243.87,191.53,230.76Z"/><path class="cls-2" d="M259.84,218.59v8.94c-.8-.06-1.43-.12-2.17-.12-5.34,0-8.88,2.92-8.88,9.32V252.5H239.1V219.09h9.25v4.41C250.71,220.27,254.69,218.59,259.84,218.59Z"/><path class="cls-2" d="M297.85,238.53H272.57c.94,4.16,4.48,6.7,9.57,6.7a11.28,11.28,0,0,0,8.38-3.23l5.16,5.59c-3.11,3.54-7.77,5.41-13.79,5.41-11.55,0-19.07-7.27-19.07-17.21s7.64-17.2,17.83-17.2c9.81,0,17.39,6.58,17.39,17.33C298,236.66,297.91,237.72,297.85,238.53Zm-25.4-5.66h16.46a8.35,8.35,0,0,0-16.46,0Z"/><path class="cls-2" d="M333.13,233.43V252.5h-9.07v-4.16c-1.8,3-5.28,4.66-10.19,4.66-7.82,0-12.48-4.35-12.48-10.13s4.16-10,14.35-10h7.7c0-4.16-2.49-6.58-7.7-6.58a16,16,0,0,0-9.63,3.11l-3.48-6.77c3.67-2.61,9.07-4,14.41-4C327.23,218.59,333.13,223.31,333.13,233.43Zm-9.69,8.51v-3.41h-6.65c-4.53,0-6,1.67-6,3.91,0,2.42,2.05,4,5.47,4C319.53,246.48,322.32,245,323.44,241.94Z"/><path class="cls-2" d="M363.43,250.88a13.8,13.8,0,0,1-7.88,2.12c-7.89,0-12.49-4-12.49-12V227.28h-5.15v-7.45h5.15V211.7h9.69v8.13h8.32v7.45h-8.32v13.61c0,2.85,1.55,4.41,4.16,4.41a6.55,6.55,0,0,0,3.92-1.25Z"/><rect class="cls-2" x="368.9" y="219.09" width="9.69" height="33.41"/><path class="cls-2" d="M462.51,238.53H437.24c.93,4.16,4.47,6.7,9.56,6.7a11.28,11.28,0,0,0,8.38-3.23l5.16,5.59c-3.11,3.54-7.76,5.41-13.79,5.41-11.55,0-19.06-7.27-19.06-17.21s7.63-17.2,17.82-17.2c9.81,0,17.39,6.58,17.39,17.33C462.7,236.66,462.57,237.72,462.51,238.53Zm-25.4-5.66h16.46a8.35,8.35,0,0,0-16.46,0Z"/><rect class="cls-4" x="368.34" y="203.62" width="10.81" height="10.81"/><rect class="cls-4" x="274.51" y="261.6" width="10.81" height="10.81"/><path class="cls-2" d="M268.61,282.77c0,9.69-7.26,15.72-18.88,15.72H241v12H230.92V267h18.81C261.35,267,268.61,273,268.61,282.77Zm-10.18,0c0-4.78-3.11-7.57-9.25-7.57H241v15.09h8.2C255.32,290.29,258.43,287.49,258.43,282.77Z"/><rect class="cls-2" x="275.07" y="277.06" width="9.69" height="33.41"/><path class="cls-2" d="M315,310.47l-7.33-10.24-7.58,10.24H289.54l12.86-16.83L290,277.06h10.87l7.08,9.75,7.26-9.75H325.5l-12.42,16.33L326,310.47Z"/><path class="cls-2" d="M362.2,296.5H336.93c.93,4.16,4.47,6.71,9.56,6.71a11.36,11.36,0,0,0,8.39-3.23l5.15,5.59c-3.1,3.54-7.76,5.4-13.79,5.4-11.55,0-19.06-7.27-19.06-17.2s7.64-17.21,17.82-17.21c9.81,0,17.39,6.59,17.39,17.33C362.39,294.64,362.27,295.69,362.2,296.5Zm-25.4-5.65h16.46a8.35,8.35,0,0,0-16.46,0Z"/><path class="cls-2" d="M368.85,264.39h9.69v46.08h-9.69Z"/><path class="cls-2" d="M417.1,291.41v19.06H408v-4.16c-1.8,3.05-5.28,4.66-10.19,4.66-7.82,0-12.48-4.35-12.48-10.12s4.16-10,14.34-10h7.71c0-4.16-2.49-6.58-7.71-6.58a16.07,16.07,0,0,0-9.62,3.1l-3.48-6.77c3.66-2.61,9.07-4,14.41-4C411.2,276.56,417.1,281.28,417.1,291.41Zm-9.68,8.51V296.5h-6.65c-4.53,0-6,1.68-6,3.91,0,2.42,2.05,4,5.46,4C403.5,304.45,406.3,303,407.42,299.92Z"/><path class="cls-2" d="M446.6,276.56v8.95c-.8-.06-1.43-.13-2.17-.13-5.34,0-8.88,2.92-8.88,9.32v15.77h-9.69V277.06h9.25v4.41C437.47,278.24,441.45,276.56,446.6,276.56Z"/><path class="cls-2" d="M449.27,307.37l3.23-7a22.83,22.83,0,0,0,11.62,3.23c4.47,0,6.15-1.18,6.15-3,0-5.47-20.19.12-20.19-13.23,0-6.33,5.71-10.81,15.47-10.81,4.59,0,9.68,1.06,12.85,2.92l-3.23,6.9a19.11,19.11,0,0,0-9.62-2.49c-4.35,0-6.22,1.37-6.22,3.11,0,5.71,20.19.18,20.19,13.35,0,6.21-5.78,10.62-15.78,10.62C458.09,311,452.38,309.42,449.27,307.37Z"/><polygon class="cls-4" points="69.8 208.25 95.33 208.25 95.33 233.78 44.28 233.78 44.28 284.82 95.33 284.82 95.31 310.35 18.76 310.35 18.76 233.78 44.28 208.25 69.8 208.25"/><polygon class="cls-4" points="118.34 281.3 95.33 258.22 141.51 258.28 141.51 231.52 95.33 231.52 118.42 208.25 164.6 208.25 164.6 258.03 141.43 281.3 118.34 281.3"/><polygon class="cls-4" points="118.42 208.25 118.43 310.35 95.33 310.35 95.33 231.52 118.42 208.25"/></svg>